<svg xmlns="http://www.w3.org/2000/svg" width="64" height="64" viewBox="0 0 64 64" fill="none" role="img" aria-label="Rakeback">
  <title>Rakeback</title>
  <path d="M50.91 17.22 L51.43 17.92 L51.93 18.63 L52.40 19.35 L52.84 20.10 L53.26 20.86 L53.64 21.63 L54.00 22.42 L54.34 23.22 L54.64 24.03 L54.91 24.85 L55.15 25.68 L55.37 26.52 L55.55 27.37 L55.70 28.22 L55.82 29.08 L55.91 29.94 L55.97 30.80 L56.00 31.66 L55.99 32.53 L55.96 33.40 L55.89 34.26 L55.80 35.12 L55.67 35.97 L55.51 36.83 L55.32 37.67 L55.10 38.51 L54.85 39.34 L54.57 40.16 L54.26 40.96 L53.93 41.76 L53.56 42.55 L53.16 43.32 L52.74 44.07 L52.29 44.81 L51.82 45.54 L51.32 46.24 L50.79 46.93 L50.24 47.60 L49.67 48.25 L49.07 48.87 L48.45 49.48 L47.81 50.06 L47.15 50.62 L46.47 51.15 L45.77 51.66 L45.05 52.14 L44.31 52.60 L43.56 53.03 L42.80 53.43 L42.02 53.81 L41.22 54.16 L40.42 54.48 L39.60 54.76 L38.78 55.02 L37.94 55.25 L37.10 55.45 L36.25 55.62 L35.40 55.76 L34.54 55.87 L33.67 55.94 L32.81 55.99 L31.94 56.00 L31.08 55.98 L30.21 55.93 L29.35 55.85 L28.49 55.74 L27.64 55.60 L26.79 55.43 L25.95 55.23 L25.12 54.99 L24.29 54.73 L23.48 54.44 L22.67 54.11 L21.88 53.76 L21.10 53.38 L20.34 52.98 L19.59 52.54 L18.86 52.08 L18.14 51.60 L17.45 51.08 L16.77 50.55 L16.11 49.98 L15.47 49.40 L14.85 48.79 L14.26 48.16 L13.69 47.51 L13.14 46.84 L12.62 46.15 L12.12 45.44 L11.65 44.72 L11.20 43.98 L10.78 43.22 L10.39 42.45 L10.03 41.66 L9.70 40.86 L9.39 40.05 L9.11 39.23 L8.87 38.40 L8.65 37.56 L8.47 36.72 L8.31 35.86 L8.19 35.01 L8.10 34.15 L8.03 33.28 L8.00 32.42 L8.00 31.55 L8.04 30.69 L8.10 29.82 L8.19 28.96 L8.32 28.11 L8.47 27.26 L8.66 26.41 L8.88 25.57 L9.12 24.74 L9.40 23.92 L9.71 23.11 L10.04 22.31 L10.40 21.53 L10.80 20.76 L11.22 20.00" fill="none" stroke="#cbeff5" stroke-width="4" stroke-linecap="round"/>
  <path d="M47.97 3.38 L61.31 11.34 L46.03 18.80 Z" fill="#cbeff5"/>
  <circle cx="32" cy="32" r="15" fill="#007c8f" fill-opacity="0.22" stroke="#cbeff5" stroke-width="2.6"/>
  <circle cx="32" cy="32" r="7" fill="#cbeff5"/>
</svg>
