<svg xmlns="http://www.w3.org/2000/svg" width="48" height="48" viewBox="0 0 48 48" fill="none" role="img" aria-label="Diamond VIP rank">
  <title>Diamond VIP rank</title>
  <path d="M14 8 L34 8 L45 20 L24 45 L3 20 Z" fill="#8FBAFA" fill-opacity="0.23" stroke="#A6C8FF" stroke-width="2" stroke-linejoin="round"/>
  <path d="M14 8 L9 20 L39 20 L34 8 Z" fill="#A6C8FF" fill-opacity="0.16" stroke="#A6C8FF" stroke-width="1.3" stroke-linejoin="round"/>
  <path d="M3 20 L45 20 M14 8 L9 20 M34 8 L39 20" stroke="#A6C8FF" stroke-width="1.25" stroke-opacity="0.72"/>
  <path d="M9 20 L24 45 M39 20 L24 45 M24 20 L24 45 M16 20 L24 33 M32 20 L24 33" stroke="#A6C8FF" stroke-width="1.1" stroke-opacity="0.62"/>
  <path d="M14 8 L19 20 M34 8 L29 20 M24 8 L24 20" stroke="#A6C8FF" stroke-width="1" stroke-opacity="0.5"/>
</svg>
