<svg xmlns="http://www.w3.org/2000/svg" width="64" height="64" viewBox="0 0 64 64" fill="none">
  <title>Token</title>
  
  <circle cx="32" cy="32" r="30" fill="#007c8f" fill-opacity="0.18" stroke="#007c8f" stroke-width="2.6"/>
  
  <g stroke="#cbeff5" stroke-width="4" stroke-linecap="butt">
    <line x1="32" y1="3" x2="32" y2="10.5"/>
    <line x1="32" y1="53.5" x2="32" y2="61"/>
    <line x1="3" y1="32" x2="10.5" y2="32"/>
    <line x1="53.5" y1="32" x2="61" y2="32"/>
    <line x1="11.3" y1="11.3" x2="16.6" y2="16.6"/>
    <line x1="47.4" y1="47.4" x2="52.7" y2="52.7"/>
    <line x1="52.7" y1="11.3" x2="47.4" y2="16.6"/>
    <line x1="16.6" y1="47.4" x2="11.3" y2="52.7"/>
  </g>
  
  <circle cx="32" cy="32" r="19" fill="#007c8f" fill-opacity="0.30" stroke="#cbeff5" stroke-width="1.5" stroke-opacity="0.65"/>
  
  <path d="M32 19.5 L35.5 28.4 L45 29 L37.7 35.1 L40.1 44.5 L32 39.2 L23.9 44.5 L26.3 35.1 L19 29 L28.5 28.4 Z" fill="#cbeff5" stroke="#cbeff5" stroke-width="1" stroke-linejoin="round"/>
</svg>